<svg width="313" height="57" viewBox="0 0 313 57" fill="none" xmlns="http://www.w3.org/2000/svg">
<path d="M169.945 7.35836L165.019 12.289L160.098 7.35836L165.019 2.42771L169.945 7.35836ZM35.3016 38.7685L38.2555 36.0843C38.1317 35.7482 37.7337 34.5366 37.2473 33.0331C36.2479 29.3671 34.7134 23.8085 34.7134 23.8085L32.3786 21.6152V24.0915C32.3786 29.4113 28.6286 32.0779 23.5211 34.2889C30.6583 34.6913 34.5277 38.0964 35.2971 38.7685M126.87 31.7241L133.101 27.7221L126.87 19.3821V31.7285V31.7241ZM148.016 31.7241L154.243 27.7221L148.016 19.3821V31.7285V31.7241ZM89.0389 36.2523L91.6568 38.3086C92.3908 38.8835 92.7976 38.9985 93.2443 38.9985C93.8413 38.9985 94.2879 38.596 94.2879 38.596L94.2967 24.7681L89.0389 19.581V36.2523ZM81.9149 21.5798L93.5096 13.6864L101.416 21.1465V36.4558C101.416 36.4558 102.619 37.4109 103.68 38.2909C104.618 39.0648 105.126 39.1709 105.485 39.1709C106.152 39.1709 106.771 38.6535 107.192 38.2644L107.183 8.89724C107.183 7.33182 106.913 5.22246 105.277 3.74106L105.392 3.56865C107.262 4.09046 108.695 5.85925 109.124 7.2301C110.442 2.67977 115.443 1.04804 119.37 1.56543V1.80424C116.465 2.40564 114.307 4.46632 114.307 9.52077V36.615C114.307 36.615 115.576 37.7735 115.908 38.061C116.681 38.8127 117.159 39.193 117.915 39.193C118.592 39.193 119.189 38.8348 119.485 38.6093L119.71 38.428V21.6196L131.597 13.6731L139.535 24.2817L126.861 32.3786V35.7217C126.861 35.7217 131.991 38.282 133.804 39.1753C134.626 39.5821 135.48 39.9492 136.599 39.9492C137.837 39.9492 139.039 39.476 139.667 39.193C140.233 38.9233 140.733 38.6977 140.853 38.6447V21.624L152.739 13.6775L160.677 24.2861L148.007 32.383V35.7261C148.007 35.7261 153.137 38.2865 154.95 39.1797C155.773 39.5866 156.763 39.7988 157.785 39.7988C159.111 39.7988 160.217 39.2328 160.823 38.941L162.37 38.145V22.4377L159.306 18.4711L164.949 13.6775L169.49 19.5235V47.1705C162.07 47.1705 158.488 56.8505 145.606 56.8505C138.106 56.8505 134.317 53.3968 134.317 49.0277C134.317 45.7068 137.222 43.111 140.733 43.111C144.788 43.111 146.738 45.0258 147.755 46.5205L147.433 46.6973C146.858 46.1047 146 45.4105 144.373 45.4105C142.599 45.4105 140.883 46.684 140.883 48.7978C140.883 52.0923 144.678 54.8649 149.763 54.8649C154.579 54.8649 162.37 51.4113 162.37 44.6808V38.7994L151.607 44.6322L140.857 39.3213L130.461 44.6322L119.719 39.0338L113.002 44.5659L107.183 38.9321L100.527 44.5703L94.4471 39.0427L89.0831 44.5703L81.9193 38.9454L75.1889 44.5437L68.9449 38.8791V22.4023L66.0882 18.2588L63.2802 20.1957V36.3806L67.2158 39.905L61.9889 44.5614L56.1562 38.9056L50.3544 44.5305L43.8406 41.5632C41.5412 40.5329 39.8077 39.2195 38.5341 36.637C35.8941 38.9409 32.5997 41.9745 29.9597 44.4597C27.8503 43.0977 24.1048 40.9088 17.8166 40.9088C8.70269 40.9088 0.658882 45.2778 0.658882 50.4561C0.658882 53.7417 3.04682 55.4752 5.92119 55.4752L5.8902 55.9572C2.02971 55.9572 0.0177002 53.3083 0.0177002 50.235C0.0177002 41.5146 11.0066 34.9434 20.6202 34.2978C21.6019 32.98 23.0302 31.3438 23.0302 26.7758V13.934C23.0302 11.8689 23.698 10.9977 23.9589 10.6572C23.8616 10.9845 23.5963 11.8202 23.5963 14.0932V27.2887C23.5963 31.3924 22.1856 32.9623 21.2083 34.2712C21.5577 34.2535 21.8982 34.2447 22.2431 34.2447L22.8357 34.2535C24.9716 31.8346 25.1971 29.1327 25.1971 26.5723C25.1971 26.5723 25.1794 17.3832 25.1971 13.7085C25.2192 9.39252 26.6033 7.78732 29.2256 5.16944C29.8624 4.53708 30.508 3.89584 31.0033 3.41826L30.8927 3.29005C27.6823 5.73989 25.0334 7.69444 20.8678 7.69444C17.5557 7.69444 14.6681 6.22633 11.5328 6.22633C9.16255 6.22633 7.95532 7.34066 7.491 7.67674C8.74245 5.31534 12.373 0.0044136 17.821 0.0044136C21.8584 0.0044136 23.7688 1.72461 27.7531 1.72461C30.0702 1.72461 32.1221 1.42393 33.8998 0.530671L34.0546 0.681007C32.8871 2.57809 32.3963 5.19595 32.3963 8.51252V17.2683L43.593 0.499686C44.924 1.35757 46.3524 2.34372 48.9437 2.34372C52.0082 2.34372 53.3039 1.45928 54.3652 0.826917L54.4935 0.902112C53.8523 2.89648 50.7833 7.97304 45.8792 7.97304C43.2923 7.97304 41.2935 6.78792 40.4224 6.26611L35.0628 14.2922L41.1697 19.2361C41.1697 19.2361 43.7743 28.1068 44.8223 31.5207C45.9898 35.3193 47.0467 35.8146 49.2489 36.8405C50.12 37.2429 51 37.6364 52.2691 38.2069C53.6223 38.8127 54.0291 38.795 54.7101 38.795C55.4265 38.795 55.9704 38.4899 56.1562 38.3617V8.8309C56.1562 6.0494 55.1922 4.62548 54.2458 3.74106L54.3652 3.57307C55.3159 3.76322 57.3059 4.91735 58.0975 7.23895C58.8935 4.10369 62.5726 0.933066 68.3214 1.56543V1.84402C65.1507 2.46754 63.2802 4.78029 63.2802 9.75073V19.5191L71.6423 13.7571L76.0689 19.4926V36.6282L77.9571 38.2113C78.5806 38.7375 79.1732 39.1444 80.093 39.1444C80.9243 39.1444 81.5788 38.5916 81.9281 38.3307V21.5798H81.9149ZM277.606 31.7241L283.837 27.7221L277.606 19.3821V31.7285V31.7241ZM215.192 17.8962L220.68 13.682L225.164 19.5191V36.4292C225.164 36.4292 226.115 37.2827 226.783 37.8974C227.601 38.6491 228.397 38.8835 229.118 38.8835C229.927 38.8835 230.488 38.5474 230.732 38.3882V21.5577L227.888 17.8918L233.372 13.6731L237.86 19.5058L246.607 13.682L251.091 19.5058L260.055 13.6687L264.543 19.5014V36.4248L266.493 38.1803C267.28 38.8967 268.085 39.2815 268.978 39.2815C269.664 39.2815 270.004 39.0824 270.283 38.9011L270.446 38.7906V21.6196L282.333 13.6731L290.275 24.2817L277.601 32.3786V35.7217C277.601 35.7217 282.731 38.282 284.548 39.1753C285.371 39.5821 286.22 39.9492 287.343 39.9492C288.581 39.9492 289.784 39.476 290.412 39.193L291.381 38.742L291.606 39.2549L281.201 44.6278L270.654 39.1311L264.07 44.5437L257.419 38.8746V21.5179L254.589 17.8962L251.082 20.1824V36.4336L255.261 40.1747L250.604 44.5614L243.958 38.8791V21.5356L241.19 17.967L237.856 20.1869V36.4292L242.034 40.1791L237.378 44.5659L230.727 38.8835L224.647 44.5305C223.701 43.6726 218.036 38.9056 218.036 38.9056V21.5754L215.192 17.8874V17.8962ZM303.568 33.7715L299.721 31.0608L291.668 42.1116L291.81 42.2575C292.946 41.1166 295.529 38.5607 299.04 38.5607C301.605 38.5607 303.055 39.4849 303.568 39.7458V33.7759V33.7715ZM309.754 16.3308L309.595 16.1981C308.967 16.9233 306.252 19.8154 302.891 19.8154C300.596 19.8154 299.371 18.9885 298.841 18.6258V25.2457L301.936 27.05L309.759 16.3264L309.754 16.3308ZM312.173 13.9826L304.271 24.8212L310.701 29.5175V37.4552L301.322 44.6366C300.733 44.2298 298.558 42.6599 295.175 42.6599C292.358 42.6599 290.633 43.96 289.643 44.6499L289.316 44.3669L297.647 32.9357L291.717 29.5838V20.806L300.91 13.6421C301.733 14.2347 303.413 15.4508 306.571 15.4508C309.365 15.4508 311.046 14.1905 311.749 13.6377L312.173 13.9782V13.9826ZM220.671 2.42771L225.593 7.35836L220.671 12.289L215.745 7.35836L220.671 2.42771ZM217.518 0.849049C217.399 1.82191 216.205 9.58269 207.383 9.58269C206.866 9.58269 206.202 9.56938 205.773 9.54727V37.5657C210.39 36.1374 214.206 32.3255 215.86 26.9571L216.072 26.9836C215.431 36.8095 207.547 44.5526 198.035 44.5526C187.713 44.5526 180.059 36.5707 180.059 25.657C180.059 18.4711 183.685 11.9706 189.305 8.77783L189.434 8.92822C186.723 12.0989 185.272 15.8444 185.272 20.576C185.272 26.5326 187.576 31.2952 190.871 34.3331C191.596 33.2984 192.684 31.5119 192.684 27.784V7.07534C192.396 7.01343 191.118 6.7216 189.84 6.7216C186.157 6.7216 183.022 7.71655 180.245 10.9535L180.068 10.8563C180.961 4.57688 185.427 0.0353985 193.59 0.0353985C200.94 0.0353985 204.734 2.79478 210.439 2.79478C214.255 2.79478 216.501 1.29565 217.319 0.760575L217.505 0.853475L217.518 0.849049ZM192.211 35.3944C193.599 34.059 194.882 31.7153 194.882 28.0361V7.61925C194.475 7.5087 193.626 7.28319 193.259 7.19917V28.0582C193.259 32.0779 191.897 33.6743 191.229 34.625C191.49 34.8461 191.928 35.191 192.215 35.39M201.13 38.2555C203.178 38.2555 204.606 37.8708 205.207 37.7338V9.5252C204.168 9.4854 202.89 9.3262 202.231 9.24218V24.5692C202.231 31.9939 194.638 34.5498 192.525 35.6465C194.846 37.2075 197.849 38.26 201.13 38.26" fill="#20255C"/>
<path d="M107.183 8.90165C107.183 7.33623 106.913 5.22687 105.277 3.74547L105.392 3.57306C107.262 4.09486 108.695 5.86366 109.124 7.23451C110.442 2.68417 115.443 1.05245 119.37 1.56541V1.80422C116.465 2.40562 114.307 4.4663 114.307 9.52075V36.6149C114.307 36.6149 115.576 37.7735 115.907 38.061C116.681 38.8127 117.159 39.193 117.915 39.193C118.592 39.193 119.189 38.8348 119.485 38.6093C119.6 38.5209 119.737 38.4058 119.737 38.4058L120.002 38.7994L113.007 44.5614L107.187 38.9233V8.8928L107.183 8.90165Z" fill="#20255C"/>
<path d="M82.2023 38.711L81.9193 38.3351C81.5699 38.596 80.911 39.1488 80.0841 39.1488C79.1643 39.1488 78.5762 38.742 77.9482 38.2157C76.8781 37.318 76.06 36.6326 76.06 36.6326V19.497L71.629 13.7615L63.2669 19.5235V9.75955C63.2669 4.78912 65.133 2.47636 68.3081 1.85285V1.57425C62.5593 0.941894 58.8757 4.11252 58.0842 7.24778C57.2926 4.92176 55.3027 3.772 54.3519 3.58185L54.2325 3.74989C55.1789 4.63431 56.1429 6.05823 56.1429 8.83972V38.9188L61.9756 44.5747L67.2025 39.9182L63.2669 36.3938V20.209L66.0749 18.2721L68.9316 22.4112V38.8923L75.1756 44.557L82.1979 38.7198L82.2023 38.711Z" fill="#20255C"/>
<path d="M147.76 46.5205C146.743 45.0258 144.793 43.111 140.738 43.111C137.231 43.111 134.321 45.7068 134.321 49.0277C134.321 53.3968 138.111 56.8505 145.606 56.8505C158.488 56.8505 162.07 47.1705 169.49 47.1705V19.5235L164.949 13.6776L159.306 18.4711L162.37 22.4377V44.6809C162.37 51.4113 154.579 54.8649 149.763 54.8649C144.682 54.8649 140.883 52.0923 140.883 48.7978C140.883 46.684 142.599 45.4105 144.373 45.4105C146 45.4105 146.858 46.1047 147.433 46.6929L147.755 46.516L147.76 46.5205ZM169.945 7.35836L165.019 12.289L160.093 7.35836L165.019 2.42772L169.945 7.35836Z" fill="#20255C"/>
<path d="M34.0368 0.68102C32.8694 2.57368 32.3786 5.19596 32.3786 8.51253V17.2683L43.5753 0.499699C44.9064 1.35759 46.3347 2.34373 48.9261 2.34373C51.9906 2.34373 53.2863 1.45929 54.3476 0.82693L54.4758 0.902125C53.839 2.89649 50.7656 7.97305 45.8615 7.97305C43.2746 7.97305 41.2758 6.78793 40.4047 6.26613L35.0451 14.2922L41.152 19.2361C41.152 19.2361 43.7566 28.1024 44.8046 31.5163C45.9721 35.3149 47.0245 35.8101 49.2312 36.8361C50.1023 37.2385 50.9779 37.632 52.2515 38.2025C53.6046 38.8083 54.0114 38.795 54.6924 38.795C55.5194 38.795 56.1164 38.3882 56.2004 38.313L56.448 38.6314L50.3367 44.5349C50.3367 44.5349 46.5248 42.797 43.8229 41.5677C41.5235 40.5373 39.79 39.224 38.5164 36.6415C35.8764 38.941 32.582 41.979 29.942 44.4642C27.8326 43.1022 24.0871 40.9132 17.7989 40.9132C8.68499 40.9132 0.641182 45.2822 0.641182 50.4605C0.641182 53.7461 3.02912 55.4796 5.90349 55.4796L5.87255 55.9616C2.01207 55.9616 0 53.3128 0 50.2394C0 41.5235 10.9889 34.9478 20.6025 34.3022C21.5842 32.9844 23.0126 31.3483 23.0126 26.7802C23.0126 26.7802 23.0126 14.4779 23.0126 13.9385C23.0126 11.8733 23.6803 10.9977 23.9412 10.6617H23.9457C23.8484 10.9933 23.5786 11.8247 23.5786 14.0976V27.2932C23.5786 31.3969 22.168 32.9623 21.1907 34.2757C21.54 34.258 21.8805 34.2492 22.2255 34.2492C22.4244 34.2492 22.6234 34.2491 22.818 34.258C24.9583 31.8391 25.1794 29.1372 25.1794 26.5768C25.1794 26.5768 25.1617 17.3877 25.1794 13.7085C25.2015 9.39253 26.5856 7.78734 29.2079 5.16946C29.8447 4.5371 30.4903 3.89586 30.9856 3.41827L30.875 3.29007C27.6646 5.73991 25.0158 7.69446 20.8502 7.69446C17.538 7.69446 14.6504 6.22634 11.5152 6.22634C9.14491 6.22634 7.93767 7.34067 7.47335 7.67675L7.38488 7.60161C8.72477 5.31096 12.3553 0 17.7989 0C21.8363 0 23.7466 1.7202 27.7354 1.7202C30.0525 1.7202 32.1044 1.41952 33.8821 0.526257L34.0368 0.676593V0.68102ZM35.3016 38.7685L38.2555 36.0843C38.1317 35.7482 37.7337 34.5366 37.2473 33.0331C36.2479 29.3672 34.7134 23.8085 34.7134 23.8085L32.3786 21.6152V24.0916C32.3786 29.4113 28.6286 32.0779 23.5211 34.2889C30.6584 34.6913 34.5277 38.0964 35.2971 38.7685" fill="#20255C"/>
<path d="M119.715 21.6285L131.602 13.682L139.544 24.2906L126.87 32.3874V35.7305C126.87 35.7305 132 38.2909 133.813 39.1842C134.635 39.5866 135.489 39.958 136.607 39.958C137.846 39.958 139.048 39.4849 139.676 39.2019C140.331 38.8923 140.892 38.6403 140.892 38.6403V39.3124L130.465 44.6411L119.715 39.0383V21.6329V21.6285ZM126.87 31.7241L133.101 27.7221L126.87 19.3821V31.7285V31.7241Z" fill="#20255C"/>
<path d="M270.451 21.6285L282.337 13.682L290.28 24.2906L277.606 32.3874V35.7305C277.606 35.7305 282.735 38.2909 284.553 39.1842C285.375 39.5866 286.224 39.958 287.348 39.958C288.586 39.958 289.789 39.4849 290.417 39.2019C290.602 39.1179 291.381 38.7508 291.381 38.7508L291.606 39.2638L281.201 44.6366L270.451 39.0338V21.6285ZM277.606 31.7241L283.832 27.7221L277.606 19.3821V31.7285V31.7241Z" fill="#20255C"/>
<path d="M140.861 21.6285L152.748 13.682L160.686 24.2906L148.012 32.3874V35.7305C148.012 35.7305 153.142 38.2909 154.955 39.1842C155.777 39.5866 156.768 39.8033 157.789 39.8033C159.116 39.8033 160.217 39.2373 160.827 38.9454C161.402 38.6536 162.512 38.0742 162.512 38.0742V38.7287L151.607 44.6366L140.857 39.3257V21.624L140.861 21.6285ZM148.016 31.7241L154.243 27.7221L148.016 19.3821V31.7285V31.7241Z" fill="#20255C"/>
<path d="M89.0388 36.2523C89.0388 36.2523 91.2101 37.9593 91.6567 38.3086C92.3908 38.8835 92.7976 38.9985 93.2443 38.9985C93.8412 38.9985 94.2879 38.5961 94.2879 38.5961L94.2967 24.7682L89.0388 19.5811V36.2523ZM81.9149 21.5798L93.5096 13.6864L101.416 21.1465V36.4558C101.416 36.4558 102.619 37.4109 103.68 38.2909C104.618 39.0648 105.126 39.171 105.485 39.171C106.152 39.171 106.771 38.658 107.192 38.2644L107.501 38.6624L100.532 44.5659L94.4515 39.0383L89.0875 44.5659L81.9193 38.941V21.571L81.9149 21.5798Z" fill="#20255C"/>
<path d="M251.091 19.5147L246.607 13.6908L237.86 19.5147L233.372 13.682L227.888 17.8962L230.732 21.5665V38.8879L237.382 44.5703L242.039 40.1835L237.86 36.4336V20.1913L241.194 17.9758L243.962 21.5444V38.8879L250.609 44.5703L255.265 40.1835L251.086 36.4425V20.1913L254.598 17.905L257.428 21.5268V38.8835L264.079 44.5526L270.716 39.0957L270.495 38.7729C270.495 38.7729 270.398 38.8392 270.296 38.9056C270.017 39.0869 269.677 39.2858 268.992 39.2858C268.098 39.2858 267.289 38.9011 266.502 38.1847C265.989 37.7204 264.552 36.4292 264.552 36.4292V19.5058L260.063 13.6731L251.1 19.5103L251.091 19.5147Z" fill="#20255C"/>
<path d="M303.568 33.7715L299.721 31.0608L291.668 42.1116L291.81 42.2575C292.946 41.1166 295.529 38.5607 299.04 38.5607C301.605 38.5607 303.055 39.4848 303.568 39.7458V33.7759V33.7715ZM309.754 16.3308L309.595 16.1981C308.967 16.9233 306.252 19.8154 302.891 19.8154C300.596 19.8154 299.371 18.9884 298.841 18.6258V25.2457L301.936 27.0499L309.754 16.3264V16.3308ZM312.173 13.9826L304.271 24.8212L310.701 29.5174V37.4551L301.322 44.6366C300.733 44.2298 298.558 42.6599 295.175 42.6599C292.358 42.6599 290.633 43.96 289.643 44.6498L289.316 44.3669L297.647 32.9357L291.717 29.5838V20.8059L300.91 13.6421C301.733 14.2303 303.413 15.4508 306.571 15.4508C309.365 15.4508 311.046 14.1905 311.749 13.6377L312.173 13.9782V13.9826Z" fill="#20255C"/>
<path d="M220.671 2.42772L215.745 7.35836L220.671 12.289L225.593 7.35836L220.671 2.42772ZM215.192 17.8962L220.68 13.682L225.164 19.5191V36.4292C225.164 36.4292 226.115 37.2827 226.783 37.8974C227.601 38.6491 228.397 38.8879 229.118 38.8879C229.975 38.8879 230.555 38.512 230.771 38.3661C230.824 38.4368 230.988 38.6447 230.988 38.6447L224.651 44.5305C223.705 43.6726 218.04 38.9056 218.04 38.9056V21.5754L215.197 17.8874L215.192 17.8962Z" fill="#20255C"/>
<path d="M217.518 0.849064C217.399 1.82192 216.209 9.5827 207.383 9.5827C206.866 9.5827 206.202 9.56945 205.773 9.54292V37.5613C210.394 36.1374 214.206 32.3211 215.86 26.9527L216.072 26.9792C215.431 36.8051 207.547 44.5482 198.035 44.5482C187.713 44.5482 180.059 36.5663 180.059 25.657C180.059 18.4667 183.685 11.9706 189.305 8.77342L189.434 8.92381C186.723 12.0945 185.273 15.84 185.273 20.5716C185.273 26.5282 187.576 31.2907 190.871 34.3287C191.596 33.294 192.684 31.5075 192.684 27.7796V7.07093C192.397 7.00902 191.118 6.71719 189.845 6.71719C186.161 6.71719 183.026 7.71214 180.249 10.9491L180.072 10.8518C180.965 4.57247 185.432 0.0309868 193.595 0.0309868C200.949 0.0309868 204.739 2.7948 210.443 2.7948C214.259 2.7948 216.506 1.29566 217.324 0.760589L217.51 0.85349L217.518 0.849064ZM192.211 35.3945C193.599 34.059 194.882 31.7153 194.882 28.0317V7.61484C194.475 7.50428 193.626 7.27878 193.259 7.19476V28.0538C193.259 32.0735 191.897 33.6698 191.229 34.6206C191.49 34.8417 191.928 35.1866 192.215 35.3856M201.13 38.2556C203.178 38.2556 204.606 37.8753 205.207 37.7338V9.52521C204.168 9.48541 202.89 9.32621 202.231 9.24219V24.5692C202.231 31.9939 194.639 34.5498 192.525 35.6465C194.846 37.2075 197.849 38.26 201.13 38.26" fill="#20255C"/>
</svg>
