<?xml version="1.0" encoding="UTF-8"?>
<svg id="Layer_1" data-name="Layer 1" xmlns="http://www.w3.org/2000/svg" viewBox="0 0 283.46 283.46">
  <defs>
    <style>
      .cls-1 {
        fill: #fff;
      }
    </style>
  </defs>
  <g>
    <path class="cls-1" d="M78.62,220.77v24.63h-7.82v-24.63h7.82ZM78.25,221.28h-7.09v23.75h7.09v-23.75Z"/>
    <path class="cls-1" d="M90.29,220.77v24.63h-7.85v-24.63h7.85ZM82.81,221.28v23.75h7.12v-23.75h-7.12Z"/>
    <g>
      <path class="cls-1" d="M140.44,220.76l.05,24.66-8.08.02-.05-24.66,8.08-.02ZM139.87,221.28h-7.09v23.75h7.09v-23.75Z"/>
      <path class="cls-1" d="M144.04,220.77h7.87s0,24.64,0,24.64h-7.87s0-24.64,0-24.64ZM151.53,221.28h-7.13v23.75h7.13v-23.75Z"/>
    </g>
  </g>
  <g>
    <path class="cls-1" d="M231.14,270.01H52.68s0-210.2,0-210.2c.65-.31,1.13-.71,1.48-1.19.45.04.83,0,1.34-.27L141.92,13.67l87.63,45.31.77-.52.83,1.37v210.18ZM142.13,58.48l.86.8V15.85c.01-.73.16-1.13-.53-1.42-.35-.15-.91-.16-1.15.07-.36.36-.08,1.08-.08,1.55v41.06c0,.9-.26,1.47.01,2.49l.88-1.12ZM139.74,59.29c.26.59.75.61,1.14.31V14.84c-.4.06-.77.26-1.14.61v43.84ZM143.34,59.56c.08.28,1.04.28,1.03.03l-.03-.95-.02-41.83c0-.37.23-1.21-.05-1.35l-1.04-.51.1,1.85v40.3c0,.81-.26,1.59,0,2.46ZM139.32,58.81V15.8c-.56-.15-1.1.29-1.1.8v41.48c.34.39.69.72,1.1.73ZM145.64,58.46l.89.84V16.61s-1.94-1.04-1.94-1.04l.1,2v39.34s-.05,2.93-.05,2.93l1-1.39ZM136.09,59.64c.74.19,1.2.18,1.86,0V16.36s-1.87.87-1.87.87v42.42ZM147.91,59.29V17.56s-.59-.59-.59-.59c-.11-.11-.34.14-.34.38v41.28c0,.42-.09.89.09,1.07.15.16.67,0,.84-.42ZM135.73,58.96l-.02-39.67c0-.48.29-1.43,0-1.68-.23-.19-1.03.16-1.02.46l.05,1.22v39.32c.27,0,.43,0,.54.06.12.08.53.33.45.28ZM150.02,58.98V18.51c-.54-.49-1.05-.78-1.85-.83v41.87s1.08-1.08,1.08-1.08c.2.31.49.63.76.52ZM132.75,59.6c.27.31,1.31.19,1.63-.01V19.09c.09-.14.1-.99-.07-.92l-.71.3c-.43.18-.91.45-1.08.74-.15.26.11,1.05.11,1.41v36.49c0,.83-.39,1.92.11,2.49ZM151.43,59.29V19.29c0-.39-.93-.71-1.13-.45v40.19c0,.28.24.68.41.78s.73-.11.73-.51ZM131.15,58.3l1.14.79V19.25c-.41.01-1.13.45-1.13.97v38.08ZM152.93,58.31V21.2s-.03-1.21-.03-1.21c0-.26-.63-.45-1.11-.36v39.47c.48-.22.73-.41,1.13-.78ZM129.04,59.5c.73.45,1.38.42,1.86-.03V20.18c-.81.02-1.57.35-1.77.78-.23.47.04,1.46.04,1.91l-.09,8.07-.04,28.56ZM155.04,59.51V21.03s-1.84-.97-1.84-.97l.08,1.91-.02,35.91c0,.65-.24,1.37.2,1.74.34.28,1.11.29,1.58-.1ZM127.61,58.59l1.17.34V21.32c-.4-.28-1.18.04-1.18.62v36.65ZM155.29,59.37l1.08-.99V23.12c0-.47.12-1.07.02-1.37-.08-.25-.84-.55-1.01-.36-.26.3.02,1.24.01,1.72v34s-.11,2.26-.11,2.26ZM127.27,21.91h-1.1v37.86h1.1V21.91ZM158.58,59.34V22.89s-1.91-1.07-1.91-1.07l.06,2.06v34.19c-.01.7-.06,1.29.31,1.62.27.24,1.54.23,1.54-.35ZM125.11,59.21l.38.57c.08.12.38-.43.4-.57V22.67c-.76.18-1.29.44-1.87.82l.02,35.2c.23-.05.59-.2.68-.06l.38.57ZM159.96,57.96V23.87s-.45-.63-.45-.63c-.08-.11-.6.13-.6.31l-.02,4.54-.02,31.01c.57-.18.84-.54,1.09-1.14ZM123.7,58.52l-.02-32.91.1-2.03-1.19.71.1,1.32v33.04c0,.41-.08.91.1,1.08s.92.09.92-.16v-1.05ZM162.07,59.12V24.8c-.49-.51-1.02-.78-1.85-.95v35.4c0,.35.76.64,1.05.6s.62-.21.8-.72ZM121.24,58.59c.35.56.5.87,1.1,1.26V24.37c-.53.2-1.25.51-1.72.92-.33.28-.17,1.33-.01,1.84v30.57c-.14.19-.18.95.02.93l.61-.04ZM163.48,58.18V26.17c0-.4-.11-.88-.32-1.02-.17-.11-.62-.11-.82.02v34.2s1.14-1.18,1.14-1.18ZM119.1,59.31c0,.52,1.12.62,1.12.35l.02-34.1c-.36-.05-1.14.35-1.14.79v32.97ZM164.97,58.71v-31.39c0-.46.05-1.03-.15-1.29-.15-.2-.7-.27-.98-.12v33.32c.11.41.53.63.87.56.25-.05.26-.5.26-1.09ZM118.85,59.45V26.31c-.89.17-1.4.47-1.93,1.03l.13,25.47c.01,1.94.17,3.76.02,5.64,1.02.09,1.77,2.25,1.77.99ZM166.45,59.15c.69-.79.63-1.11.63-2.03l.02-29.91-1.9-.93.13,2.01v30.37s-.14.9-.14.9c-.03.19.63.31.75.17l.5-.58ZM116.72,59.65c0-2.91.07-5.2-.09-7.89v-23.29s.12-.9.12-.9c.02-.18-.54-.14-.69-.03l-.51.4v31.75c.39.07.78.06,1.17-.02ZM167.51,59.38c.11.25.79.58.86.38s.07-.55.07-.92v-29.41c0-.36.18-1.14.01-1.39s-.52-.41-1.14-.68l.13,2.07v27.69c0,.8-.2,1.65.07,2.26ZM115.21,59.62v-31.22c-.29-.19-.88-.07-.98.18-.11.27.05.86.05,1.22l-.06,28.3c-.06.64.33,1.42.99,1.52ZM170.65,57.22v-28.04c-.55-.46-1.2-.77-1.88-.95v31.68c1.34-.39,1.88-1.47,1.88-2.69ZM113.83,58.53v-29.61c-.72.16-1.22.41-1.86.76v29.99c.37.16,1.06.12,1.27-.09.18-.18.58-.63.58-1.05ZM172.01,58.91v-28.54c0-.27-.22-.77-.4-.86-.15-.07-.45-.03-.7.07v29.45s.31.58.31.58c.07.13.46.21.56.11s.23-.49.23-.81ZM111.67,59.66l-.04-27.75.11-2.07c-.59.25-.97.41-1.13.66-.14.21.04.92.04,1.22v25.41c0,1.02-.1,2.18,1.03,2.54ZM174.12,58.17v-27.06c-.44-.59-1.01-.93-1.84-1v29.12c0,.15.26.59.41.57s.45-.19.55-.33l.88-1.3ZM110.29,58.78v-28.15c-.56.22-1.27.54-1.77.95-.34.28.03,1.4.03,1.86l-.02,24.85-.11,1.35,1.12.13.75-.98ZM175.53,59.5v-27.42c-.08-.34-.24-.66-.42-.77-.14-.09-.55.03-.72.18v27.52s.44.71.44.71c.07.11.48-.04.69-.22ZM108.19,59.76v-27.96c-.36-.08-1.13.38-1.13.85v25.63c.28.62.53,1.14,1.13,1.48ZM177.02,59.05v-25.42s-.01-1.21-.01-1.21c0-.25-.64-.41-1.12-.35v27.6c.49.33,1.13-.04,1.13-.61ZM106.8,58.54v-25.96c-.83.12-1.38.42-1.91.85v26.23c.4.15,1.08.14,1.3-.06.19-.17.61-.67.61-1.07ZM178.07,59.29c.19.21.57.53.81.52s.25-.6.25-.96l.02-25.34-1.85-.99.07,1.88v22.55c0,1.01-.13,1.41.69,2.34ZM104.57,59.84c.15-1.42.09-1.8-.03-2.72v-21.77s.12-1.84.12-1.84l-1.17.67v24.09c.34.66.59,1.06,1.08,1.58ZM180.46,57.13v-21.4s.07-1.39.07-1.39c.01-.3-.83-.72-1.04-.5-.27.28,0,1.25,0,1.7l-.02,23.31-.09.71c-.02.15.46.31.58.23.98-.67.5-1.98.5-2.66ZM102.05,59.75c.82,0,1.06-.64,1.12-1.28v-23.98c-.31-.08-.87.07-1.03.31-.13.2-.1.78-.1,1.12v23.82ZM182.69,59.33v-24s-1.89-.92-1.89-.92v22.72c.01.9.01,1.21.58,1.94l.54.7c.11.14.77-.19.77-.44ZM101.62,59.75c.21-.12.08-.8.08-1.09v-21.78s.1-1.93.1-1.93l-1.88.98.02,21.2c0,2.09,1.09,2.96,1.68,2.63ZM184.06,58.92v-22.62s-.48-.6-.48-.6c-.08-.1-.47.08-.62.21v23.14s.23.67.23.67c.05.13.49.03.55-.1l.32-.69ZM99.6,57.22l.02-21c-.39,0-1.1.27-1.09.58l.05,1.24v21.87c1.38-.51,1.01-1.57,1.01-2.69ZM186.17,58.95l-.09-12.14.1-9.6c-.51-.43-1.08-.7-1.84-.8v21.7s1.05,1.59,1.05,1.59c.09.13.69.01.71-.14l.08-.61ZM96.38,58.39c.7.96.92,1.68,1.87,1.33v-22.92s-1.86,1.03-1.86,1.03v20.56ZM187.61,58.9v-20.9c0-.26-.79-.59-1.15-.56v22.19c.45.04.66.03.85-.04l.3-.69ZM95.97,57.61v-15.66c.23-1.29.17-2.45.12-3.86-.67-.04-1.09.34-1.09.88v20.78c1.34-.15.97-1.17.97-2.14ZM189.07,57.02v-17.09c.01-.39.16-1.06-.04-1.34-.17-.24-.75-.39-1.07-.28v19.97s1.13,1.63,1.13,1.63v-2.89ZM94.14,59.81c.16.09.55-.37.61-.57v-20.52c-.79.27-1.3.51-1.92.85l.02,17.55c0,1.11.25,2.09,1.28,2.68ZM191.18,41.38c0-.51.28-1.54-.07-1.71l-1.72-.83v20.83c.7.29,1.39.09,1.68-.48.24-.48.14-1.06.14-1.68l-.02-16.14ZM92.55,57.41l-.03-15.76.11-1.97c-.62.31-.87.46-1.2.81v19.31c1.41,0,1.12-1.29,1.12-2.39ZM192.64,59.67l.03-18.4c0-.73-.42-1.3-1.16-1.26v18.26c.32.54.67,1.08,1.14,1.4ZM90,59.27c0,.25.57.69.7.53l.42-.56v-18.43c-.26-.12-.8-.06-.96.13s-.17.75-.17,1.09v17.23ZM194.76,58.57v-16.92c-.55-.46-1.03-.74-1.86-.85v18.67c0,.32,1.12.42,1.3.17.16-.21.56-.63.56-1.07ZM89.13,58.92c.57-.62.53-.86.53-1.59l.03-16.04c-.63.25-1.28.57-1.83.9l.03,17.53c.66.27.9-.42,1.25-.8ZM196.14,59.8v-16.62c.01-.32.01-.9-.17-1.05s-.67-.23-.93-.18v16.34c.33.57.67,1.1,1.1,1.51ZM86.5,59.29c0,.35.87.7.97.46.07-.19.09-.57.09-.9l.03-16.47c-.44.1-.96.29-1.08.56-.1.23.02.88.02,1.19l-.02,15.15ZM198.28,58.67l.02-15.29-1.84-.89v17.19c.39.14,1.1.12,1.33-.08.19-.17.5-.66.5-.93ZM85.19,59.4l1-1.09.02-15.26-1.89,1v15.19c.03.13.32.64.43.54l.45-.39ZM199.69,59.69l.02-15.38c-.26-.37-.71-.65-1.14-.67v14.65c.28.53.64,1.12,1.12,1.4ZM82.98,59.2c-.02.21.53.75.65.6l.44-.55v-14.82c-.29-.08-.79.04-.92.22s-.26.71-.25.99l.14,8.33c.03,1.77.08,3.28-.06,5.22ZM201.21,59.45l-.06-13.4c.09-.32.11-.96-.04-1.18s-.64-.39-1.09-.44v15.03c.11.15.47.43.61.35l.59-.36ZM82.73,58.05l-.11-4.91c-.06-2.77-.08-5.24.05-8.22-.72.27-1.34.6-1.87.96l.04,14.09c.99-.5,1.3-1.19,1.89-1.91ZM203.31,59.67c-.14-4.82-.19-9.08.02-13.65l-1.92-1.04v14.18s.74-.73.74-.73c.3.46.58,1.11,1.16,1.23ZM80.6,46.08h-1.22v13.7h1.22v-13.7ZM204.7,58.96v-12c0-.37-.75-.75-1.15-.72l-.02,13.26c.1.14.53.32.73.31s.44-.52.44-.84ZM79.03,58.06l.02-11.17c-.45.06-.97.23-1.08.46s-.05.84-.05,1.18v11.01c.33-.24,1.11-1.05,1.11-1.49ZM206.8,59.67l.02-11.76c-.51-.45-1.02-.72-1.86-.95l-.02,11.59.78.03c.26.34.55.86,1.08,1.09ZM75.77,58.78c-.02.46.47,1.01.78,1.03.32.02.86-.12,1.08-.3v-12.05s-1.9,1.01-1.9,1.01c.2,3.55.16,6.72.04,10.31ZM208.22,59.4v-9.92c-.01-.31,0-.89-.18-1.07-.15-.15-.52-.24-.93-.3l-.03,10.97c.09.26.27.59.42.72s.72-.16.72-.4ZM74.4,59.31c.66-.43.83-.65,1.09-1.02v-9.66s-1.12.62-1.12.62l.03,10.05ZM210.35,59.77l.03-10.14-1.89-.91v10.26s.67-.45.67-.45c.17-.12.5,1.31,1.19,1.24ZM72.21,58.76c0,.41.44.98.74,1.02s.82-.1,1.17-.29l-.02-10.07c-.84.26-1.46.57-1.92.96l.03,8.39ZM211.75,59.39v-8.98c-.32-.21-.72-.42-1.13-.56l-.02,9.66.55.32c.13.08.49-.24.6-.44ZM71.98,58.21c-.21-2.68-.15-4.97.01-7.69-.51.03-1.02.34-1.2.67.15,2.94.08,5.5.03,8.63l1.16-1.6ZM213.23,58.87v-6.73c.09-.29,0-1.03-.23-1.2-.2-.15-.66-.24-.93-.23v7.94c.43-.01.56-.04.68.02l.49.2ZM70.61,59.45c-.11-3.05-.12-5.4,0-8.35l-1.97,1c.51,3.14-.54,7.01.65,7.64.3.16,1.33.03,1.32-.29ZM215.45,59.45c-.23-2.65-.29-4.67,0-7.16l-1.95-.98v8.25c.39.35,1.46.37,1.96-.12ZM68.51,58.17c-.15-2.13-.09-3.7,0-5.94l-1.22.64.06,6.8,1.18-1.49ZM216.76,58.68l-.02-5.43c0-.34-.78-.85-1.14-.83v6.54c.14-.11.38-.37.53-.35l.63.07ZM66.36,59.83c.2-.01.63-.35.63-.56l-.02-6.14c-.51-.02-1.17.36-1.16.7.17,3.18-.34,6.05.55,6ZM218.88,59.44l-.08-5.19c0-.52-1.15-.97-1.78-1.01l-.02,6.25c.59.42,1.37.47,1.88-.05ZM64.87,58.45l.68.79.04-5.55-1.88.95.05,5.19,1.13-1.38ZM220.24,58.92l.06-3.73c0-.51-.47-.97-1.14-.77v4.22c.42-.01.55-.04.67.03.13.07.46.28.42.26ZM62.33,59.22c0,.23.44.64.63.58s.4-.51.33-.69c-.06-1.46-.04-2.46.02-4.01-.12-.04-.58,0-.75.13-.13.1-.25.56-.25.76v3.23ZM222.42,59.75v-3.94s-1.87-.87-1.87-.87v4.82s1.87-.01,1.87-.01ZM61.23,58.59c.09-.11.56.3.81.39l.03-3.44-1.99.96.11,3.37,1.05-1.29ZM223.81,58.98l-.04-2.22c0-.32-.76-.68-1.15-.68l.07,2.54c0,.14.72-.08.54-.02l.59.38ZM59.96,59.42l-.02-2.71c-.53.14-1.13.3-1.14.6l-.06,1.38c-.01.33.1.81.22,1.03s1-.01,1-.29ZM225.09,57.21c-.23-.11-.68-.18-.97-.21v2.44c.01.28.87.53,1,.3.39-.68.28-2.39-.03-2.53ZM58.47,59.22l.1-1.95-1.71.94c-.38.21-.3,1.27,0,1.51l.96-1.31.66.8ZM226.75,58.43l.36.58c.05.08.3.08.31-.01s-.02-.54-.1-.59l-1.82-.95.07,2.37,1.18-1.4ZM56.5,58.93c.01-.18-.51-.4-.64-.29-.3.24-.63.53-.63.78s.62.44.87.41c.2-.03.38-.57.4-.89ZM228.63,59.06l-.93-.45-.03.95c0,.2.52.24.71.23s.46-.62.25-.73ZM57.8,59.08l-.26.47c-.05.09.33.06.46.06.17,0-.21-.51-.2-.53ZM64.87,59.09l-.26.46c-.05.09.33.06.46.06.17,0-.21-.52-.2-.52ZM68.28,59.13c-.06.18-.25.61-.16.53l.31-.3c.05-.05-.13-.29-.15-.23ZM92.92,59.13c.05.22.19.64.19.53v-.31c0-.07-.21-.3-.19-.22ZM124.53,59.08l-.26.47c-.05.09.34.06.46.06.17,0-.21-.51-.2-.53ZM159.67,59.14c-.05.15-.24.59-.16.51l.31-.3c.06-.05-.13-.3-.16-.22ZM177.43,59.13c.05.22.19.64.19.53v-.31c0-.07-.21-.3-.19-.23ZM61.54,59.44c0-.12-.1-.21-.21-.21s-.21.1-.21.21.1.21.21.21.21-.1.21-.21ZM71.75,59.25v.12s0,.13,0,.13v.12s0-.12,0-.12v-.25ZM78.73,59.32c-.08.14-.17.35-.1.32l.31-.12c.07-.03-.17-.28-.21-.2ZM82.58,59.44c0-.12-.1-.21-.21-.21s-.21.1-.21.21.1.21.21.21.21-.1.21-.21ZM85.71,59.4c-.1-.01.08.3.18.26s.35-.19.25-.2l-.42-.06ZM89.65,59.44c0-.12-.1-.21-.21-.21s-.21.1-.21.21.1.21.21.21.21-.1.21-.21ZM100.05,59.25v.12s0,.13,0,.13v.12s0-.12,0-.12v-.25ZM117.76,59.44c0-.12-.1-.21-.21-.21s-.21.1-.21.21.1.21.21.21.21-.1.21-.21ZM120.9,59.4c-.1-.01.07.3.17.26s.35-.19.25-.2l-.42-.06ZM128.27,59.44c0-.12-.1-.21-.21-.21s-.21.1-.21.21.1.21.21.21.21-.1.21-.21ZM131.41,59.39c-.1-.02.07.3.17.26s.35-.18.25-.2l-.42-.06ZM134.89,59.37c.12.16.31.36.33.28l.1-.34c.02-.08-.22-.02-.43.05ZM138.48,59.4c-.11-.01.08.3.18.26s.35-.19.25-.2l-.42-.06ZM141.93,59.39c-.11-.02.07.31.17.26s.36-.18.25-.2l-.42-.06ZM145.47,59.45c-.09.06.34.15.48.17.12.02-.02-.22-.1-.3-.05-.06-.27.05-.38.13ZM148.99,59.4c-.09-.01.09.3.19.26s.35-.19.25-.2l-.43-.05ZM152.44,59.4c-.11-.01.08.3.18.26s.35-.19.25-.2l-.43-.06ZM156.38,59.44c0-.12-.1-.21-.21-.21s-.21.1-.21.21.1.21.21.21.21-.1.21-.21ZM163.46,59.44c0-.12-.1-.21-.21-.21s-.21.1-.21.21.1.21.21.21.21-.1.21-.21ZM167.09,59.44c0-.12-.1-.21-.21-.21s-.21.1-.21.21.1.21.21.21.21-.1.21-.21ZM170.31,59.32c-.06.12-.17.35-.1.33l.32-.13c.07-.03-.18-.27-.22-.2ZM180.87,59.35c.03.09.22.38.24.31l.04-.22c.01-.07-.3-.16-.28-.09ZM184.56,59.25v.12s0,.13,0,.13v.12s0-.12,0-.12v-.25ZM191.64,59.25v.12s0,.13,0,.13v.12s0-.12,0-.12v-.25ZM198.71,59.25v.12s0,.13,0,.13v.12s0-.12,0-.12v-.25ZM201.88,59.45c-.11.07.34.16.47.18.12.02-.02-.22-.1-.3-.05-.06-.26.06-.37.13ZM205.4,59.39c-.11.03.14.37.21.28l.3-.34c.05-.06-.38.01-.51.06ZM208.85,59.39c-.1-.01.08.3.17.26s.35-.19.25-.2l-.42-.06ZM212.48,59.4c-.12-.01.08.29.18.25s.35-.19.25-.2l-.42-.05ZM215.93,59.4c-.11-.02.07.3.17.26s.35-.19.25-.2l-.42-.06ZM219.4,59.37c.12.16.31.36.33.28l.1-.34c.02-.08-.22-.02-.43.05ZM222.99,59.4c-.11-.01.08.3.18.26s.35-.19.25-.2l-.43-.05ZM226.44,59.39c-.11.03.13.37.21.28l.3-.33c.05-.06-.39.02-.51.05ZM96.61,59.44l-.1.1.1.1.1-.1-.1-.1ZM103.68,59.44l-.1.1.1.1.1-.1-.1-.1ZM188.2,59.44l-.1.1.1.1.1-.1-.1-.1ZM195.27,59.44l-.1.1.1.1.1-.1-.1-.1ZM53.13,60.21v1.93s177.57.02,177.57.02v-1.93s-177.57-.02-177.57-.02ZM230.71,62.44H53.13s0,53.75,0,53.75h177.57s0-53.75,0-53.75ZM230.7,116.59H53.13v1.72h177.57v-1.72ZM61.83,123.79l-.03-4.2-2.8-.02-.24-.88-5.62.03v5.9s5.58.02,5.58.02l.29-.82,2.82-.03ZM99.41,124.61l2.28-.21-2.78-.2v-5.11s2.77-.19,2.77-.19l-.11-.17h-42.06s-.11.17-.11.17l2.81.19v5.11s-2.82.2-2.82.2l2.36.21h37.66ZM120.31,124.62l.31-.83h2.81s0-4.2,0-4.2l-2.83-.04-.31-.86h-17.69s-.47.86-.47.86l-2.69.07-.03,4.17,2.72.02.49.81h17.69ZM162.51,124.61l2.28-.21-2.78-.2v-5.11s2.77-.19,2.77-.19l-.11-.17h-43.4s-.11.17-.11.17l2.73.2v5.11s-2.74.2-2.74.2l2.36.2h39ZM181.91,124.62l.27-.9,2.82-.03v-4.09s-2.83-.03-2.83-.03c-.07-.28-.2-.66-.32-.87h-16.37s-.24.86-.24.86l-2.88.03v4.21s2.84,0,2.84,0l.3.82h16.4ZM222.74,124.61l2.28-.2-2.83-.24v-5.08s2.82-.19,2.82-.19l-.11-.17h-42.06s-.11.17-.11.17l2.74.2v5.08s-2.75.24-2.75.24l2.54.21h37.47ZM225.4,123.72l.28.92,5.02-.03v-5.9s-5.04-.03-5.04-.03l-.24.88-2.82.02v4.11s2.8.01,2.8.01ZM103.85,190.86l2.77-.12v-63.59s-2.72-.12-2.72-.12l-.12-1.91h-50.64s0,67.25,0,67.25h5.82s0-65.64,0-65.64h43.32s0,65.33,0,65.33c.25.39,1.14.52,1.39.27s.22-.92.19-1.47ZM104.13,125.12v1.67s14.54,0,14.54,0v-1.67s-14.54,0-14.54,0ZM163.86,126.73v65.13c.08.66,1.05.72,1.39.46.27-.21.28-.9.2-1.46l2.86-.11v-63.62s-2.82-.1-2.82-.1l-.14-1.91h-46.3s-.14,1.92-.14,1.92l-2.72.07v63.64s2.77.1,2.77.1c-.08.57-.09,1.27.18,1.47.32.25,1.12.15,1.37-.26v-65.34s43.33,0,43.33,0ZM165.78,125.12v1.67h14.6v-1.67h-14.6ZM182.15,126.73h43.31s0,65.61,0,65.61h5.25s0-67.21,0-67.21h-49.88s-.14,1.9-.14,1.9l-2.85.11v63.61s2.92.12,2.92.12c-.12.61-.11,1.28.17,1.48s.98.07,1.24-.29v-65.33ZM98.13,138.81l.07,1.27h-2.13s-.06,1.3-.06,1.3l-.9.35v50.65s6.69,0,6.69,0v-65.25s-42.43,0-42.43,0v65.23s6.3.02,6.3.02v-50.43c-.3-.66-.34-1.03-.45-1.86l-2.05-.02.04-1.27,17.61-7.66,17.33,7.67ZM115.91,127.05h-9.02v63.76h9.02v-63.76ZM159.82,138.85l.03,1.23c-.55,0-1.51-.02-1.97.12-.25.08-.17,1.05-.1,1.17l-1.09.19v50.75s6.72.05,6.72.05v-65.24s-42.4,0-42.4,0v65.24s6.25,0,6.25,0v-50.42c-.31-.66-.36-1.02-.48-1.85l-2.04-.03.03-1.25,17.71-7.64,17.35,7.67ZM177.55,127.05h-8.93v63.76h8.93v-63.76ZM221.42,138.83l.02,1.23c-.56,0-1.49,0-1.97.12-.27.07-.2,1.14-.16,1.17l-.99.38v50.65s6.74,0,6.74,0v-65.26s-42.46,0-42.46,0v65.22s6.23.01,6.23.01v-50.43c-.38-.62-.43-.76-.44-1.75l-2.09-.13.05-1.21,17.74-7.67,17.32,7.66ZM82.37,132.43l-1.5-.68-15.73,6.79.14.19,15.36-6.64,1.63.45.11-.11ZM143.54,132.23l-1.12-.46-15.7,6.8.13.18,15.34-6.62,1.26.21.09-.11ZM204.74,132.03c-.42-.24-.77-.22-1.3,0l-15.16,6.57.31.09,14.09-6.08c.66-.32,1.31-.46,1.94-.5l.11-.08ZM204.88,132.11l-.13.18,1.56.7.14-.18-1.57-.7ZM143.67,132.29l-.1.19,1.56.7.15-.18-1.61-.71ZM82.5,132.49l-.12.18,1.56.7.12-.19-1.56-.69ZM82.25,138.75l.83-5.15c-2.48-1.36-2.37-.94-4.83.09l.83,5.11,3.17-.05ZM143.82,138.75l.84-5.16c-2.39-1.36-2.45-.89-4.83.11l.79,5.1,3.19-.05ZM205.52,138.78l.8-5.18c-2.31-1.29-2.41-.99-4.82.09l.83,5.11,3.19-.03ZM206.59,132.87l-.11.18,1.56.7.11-.19-1.57-.69ZM145.42,133.06l-.09.21,3.22,1.44.11-.22-3.23-1.43ZM84.2,133.27l-.1.17,1.2.49.11-.17-1.21-.49ZM208.29,133.65l-.1.17,1.2.49.13-.16-1.23-.51ZM85.03,138.72l2.49-3.19-4.12-1.78-.84,5.03,2.48-.06ZM85.56,133.82l-.11.19,1.92.9.12-.2-1.93-.89ZM146.61,138.71l2.49-3.17-4.15-1.84-.83,5.07c.97.06,1.72.05,2.48-.06ZM208.21,138.77l2.54-3.24-4.12-1.82-.85,5.09,2.44-.04ZM78.73,138.51l-.79-4.66-4.05,1.74,2.48,3.05c.37.45,1.88.24,2.36-.13ZM140.35,138.78l-.81-4.92-4.05,1.74,2.51,3.2,2.36-.02ZM202.01,138.7l-.82-4.86-4.04,1.76,2.46,3.16c.74.07,1.49.07,2.4-.05ZM209.66,134.22l-.12.18,1.56.7.14-.18-1.58-.7ZM148.83,134.6l-.1.17,1.2.49.12-.17-1.21-.5ZM87.65,134.8l-.11.17,1.2.49.11-.17-1.2-.5ZM211.36,134.97l-.09.19,1.92.9.16-.19-1.99-.9ZM150.19,135.16l-.11.19,1.92.9.12-.2-1.93-.89ZM88.97,135.39l-.11.12.29.1.1-.11-.28-.11ZM89.41,135.57l-.11.19,2.85,1.25.11-.21-2.85-1.23ZM72.62,138.34c.99.49,2.13.75,3.19.22l-2.22-2.85-3.47,1.54,2.5,1.08ZM88.89,138.27l2.28-1.08-3.39-1.52-2.3,3c1.33.39,2.3.12,3.41-.4ZM149.46,138.66l3.42-1.43-3.5-1.6-2.33,3.05c.86.17,1.75.26,2.41-.02ZM196.95,138.76c.47.2,1.42.05,2.18-.08l-2.26-2.95-3.44,1.55,3.53,1.47ZM212.06,138.29l2.43-1.08-3.45-1.54-2.29,2.96c1.36.45,2.24.13,3.31-.34ZM137.45,138.64l-2.28-2.93-3.34,1.57,3.33,1.5c.72.05,1.31.05,2.28-.14ZM213.51,135.94l-.12.18,2.85,1.26.11-.2-2.85-1.24ZM152.27,136.13l-.1.17,1.2.49.11-.17-1.21-.5ZM153.62,136.7l-.11.19,1.56.7.11-.19-1.56-.7ZM92.45,136.89l-.12.19,1.56.7.12-.18-1.56-.7ZM216.51,137.28l-.1.17,1.2.49.13-.17-1.23-.5ZM72.19,138.67l-2.6-1.28-2.56,1.28c2,.21,3.25.23,5.16,0ZM94.18,138.68l-2.31-1.28-2.83,1.28c1.97.19,3.24.21,5.14,0ZM134.02,138.71l-2.86-1.27-2.57,1.28h5.43ZM155.92,138.69l-2.61-1.33-2.72,1.32c2.06.2,3.38.2,5.33.01ZM155.33,137.48l-.11.17,1.2.49.11-.17-1.2-.5ZM195.51,138.68l-2.64-1.3-2.51,1.3c2,.19,3.25.21,5.15,0ZM217.49,138.69l-2.59-1.33-2.75,1.33c2.07.17,3.38.19,5.34,0ZM94.15,137.67l-.11.17,1.2.49.11-.17-1.2-.5ZM217.89,137.85l-.14.16c.47.27,1.1.57,1.72.63l-1.58-.79ZM156.66,138.07l-.11.12.29.1.09-.09-.27-.13ZM95.48,138.25l-.12.13.29.1.08-.07-.25-.16ZM157.06,138.25l-.12.19.98.21-.85-.4ZM95.91,138.55l-.16.02c.5.02.74.02.16-.02ZM63.62,139.24v.38h34.03v-.38h-34.03ZM125.19,139.24v.38h34.03v-.38h-34.03ZM186.95,139.24v.38h34.03v-.38h-34.03ZM65.67,140.08v1.01h30v-1.01h-30ZM127.32,140.08v1.01h29.96v-1.01h-29.96ZM188.91,140.08v1.01h29.95v-1.01h-29.95ZM93.2,148.19v44.06c.58.29,1.15.26,1.52-.18v-50.62s-28.73,0-28.73,0v50.59c.43.54,1.17.58,1.53.04v-43.9s25.67,0,25.67,0ZM154.85,148.2v43.87c.39.52,1.08.52,1.47,0v-50.61s-28.62,0-28.62,0v50.61c.4.53,1.08.52,1.47,0v-43.88s25.68.01,25.68.01ZM216.46,148.19v43.85c.4.53,1.06.55,1.44.01v-50.6s-28.62,0-28.62,0v50.61c.38.53,1.08.51,1.47,0v-43.87s25.71,0,25.71,0ZM91.59,149.88v41.76c0,.31.23.76.44.79s.59-.15.81-.38v-43.48s-24.93,0-24.93,0v43.48c.35.41.81.49,1.33.22v-42.39s22.35,0,22.35,0ZM153.19,149.88v41.76c0,.47.31.8.59.8.41,0,.67-.3.64-.8v-43.07s-24.88,0-24.88,0v43.69c.31.31,1.32.21,1.32-.18v-42.2s22.34,0,22.34,0ZM214.8,149.88v42.2c0,.52,1.2.55,1.29,0v-43.51s-24.9,0-24.9,0v43.48c.29.21.48.35.63.41s.45-.19.63-.41v-42.16s22.35,0,22.35,0ZM80.43,150.23h-10.82v42.19h10.82v-42.19ZM91.22,150.23h-10.36v42.19h10.36v-42.19ZM142.12,150.23h-10.93v42.19h10.93v-42.19ZM152.84,150.23h-10.36v42.19h10.36v-42.19ZM203.71,150.23h-10.9v42.19h10.9v-42.19ZM214.43,150.23h-10.35v42.19h10.35v-42.19ZM104.13,191.06v1.36h14.54v-1.36h-14.54ZM165.77,191.07v1.35s14.6,0,14.6,0v-1.35s-14.6,0-14.6,0ZM230.71,192.9H53.13v2.77h177.57v-2.77ZM61.83,204l-.02-6.52-2.82-.04-.19-1.32-5.65.05v9.16s5.76.01,5.76.01l.07-1.28,2.86-.06ZM101.65,205.34l.13-.9h-2.86s0-7.48,0-7.48h2.86s-.13-.82-.13-.82h-42.2s-.1.82-.1.82h2.86s0,7.48,0,7.48h-2.87s.1.9.1.9h42.21ZM120.47,205.34l.08-1.29,2.88-.03v-6.53s-2.9-.06-2.9-.06c.02-.54-.04-.98-.25-1.3h-18.01s-.12,1.31-.12,1.31l-2.73.04v6.53s2.77.04,2.77.04l.22,1.28h18.07ZM164.75,205.34c.07-.28.07-.89-.02-.89h-2.71s0-7.49,0-7.49l2.7-.02c.1,0,.09-.68.03-.8h-43.16c-.39,0-.63.4-.55.8l2.85.02v7.47s-2.6.01-2.6.01c-.2,0-.36.6-.13.89h43.58ZM182.08,205.34l.05-1.29,2.89-.03v-6.53s-2.89-.04-2.89-.04c.06-.46,0-.99-.27-1.31h-16.51s-.12,1.3-.12,1.3l-2.86.07v6.52s2.9.02,2.9.02l.07,1.29h16.73ZM224.96,205.34l.1-.9h-2.86s0-7.48,0-7.48h2.86s-.09-.82-.09-.82h-42.21s-.14.81-.14.81h2.86s0,7.49,0,7.49h-2.87s.14.89.14.89h42.22ZM225.45,204.05l.07,1.3,5.19-.02v-9.17s-5.08-.04-5.08-.04l-.19,1.31-2.83.08v6.52s2.84.02,2.84.02ZM135.45,208.17h14.57s8.87,0,8.87,0h13.31s10.39,0,10.39,0l15.07.13c1.69-.91,3.53-1.37,4.93-2.56H53.48c-.57.68-.46,1.78-.08,2.51l8.14-.06,14.68-.02h10.01s13.32,0,13.32,0h10.58s14.66,0,14.66,0h10.67ZM204.13,206.51l17.85,8.49c.56.3,1.08.59,1.84.1l-19.67-9.36-19.98,9.28c.35.5.91.32,1.5.05l18.46-8.56ZM230.73,208.23l-.1-2.5-24.98.02c1.57,1.14,3.26,1.77,4.98,2.53l15.13-.08,4.97.02ZM206.11,215.32l1.1-6.85-3.05-1.49-3.38,1.55,1.1,6.83,4.24-.04ZM61.83,213.24c-.15-1.9-.14-3.02.02-4.72h-8.7s0,4.74,0,4.74l8.68-.02ZM74.85,208.5h-12.69v4.76h12.69v-4.76ZM87.18,208.48h-12.12s0,4.78,0,4.78h12.12s0-4.78,0-4.78ZM98.27,208.48h-10.88s0,4.78,0,4.78h10.88s0-4.78,0-4.78ZM111.18,208.49h-12.7v4.78h12.7v-4.78ZM123.52,208.48h-12.07v4.78h12.07v-4.78ZM123.75,208.48v4.78s12.7,0,12.7,0v-4.78s-12.7,0-12.7,0ZM148.84,208.49h-12.15s0,4.78,0,4.78h12.15s0-4.78,0-4.78ZM149.05,208.48v4.79s10.82,0,10.82,0v-4.79s-10.82,0-10.82,0ZM171,208.48h-10.91s0,4.78,0,4.78h10.91s0-4.78,0-4.78ZM171.23,208.48v4.79s12.45,0,12.45,0v-4.79s-12.45,0-12.45,0ZM187.02,213.16l9.5-4.52-12.59-.15.02,4.73c.96-.06,2.25.33,3.07-.06ZM225.16,213.22v-4.72s-13.54.12-13.54.12c3.23,1.98,6.3,3.05,9.32,4.66l4.22-.06ZM230.71,208.49h-5.3s0,4.78,0,4.78h5.3s0-4.78,0-4.78ZM209.62,215.35l3.29-4.18-5.4-2.57-1.11,6.76,3.22-.02ZM201.56,215.32l-1.07-6.64-5.34,2.5,3.26,4.19,3.15-.04ZM194.82,215.33l3.09-.1-3.08-3.94-4.45,2.12,4.45,1.91ZM213.19,215.29l4.38-1.87-4.39-2.12-3.06,3.96c1.17.13,2.07.13,3.07.03ZM53.13,213.54v4.91h14.42v-4.91h-14.42ZM67.79,213.54v4.91h12.7v-4.91h-12.7ZM80.7,213.54v4.91h12.12v-4.91h-12.12ZM93.03,213.54v4.91h10.87v-4.91h-10.87ZM104.12,213.54v4.91h12.69v-4.91h-12.69ZM129.15,213.54h-12.1s0,4.92,0,4.92h12.1s0-4.92,0-4.92ZM129.42,213.54v4.91h12.67v-4.91h-12.67ZM142.31,213.54v4.91h12.11v-4.91h-12.11ZM165.49,213.54h-10.79v4.91h10.79v-4.91ZM176.6,213.54h-10.85v4.91h10.85v-4.91ZM182.33,216.97v-1.55s3.51-1.79,3.51-1.79l-8.96-.08v4.8s8.02,0,8.02,0c.21-.26.12-1.35-.19-1.35l-2.37-.03ZM193.41,215.23c-1.35-.83-2.35-1.16-3.57-1.66l-3.12,1.68,6.69-.02ZM221.11,215.26c-1.17-.83-1.96-1.15-3.03-1.64l-3.62,1.64h6.65ZM223.05,218.33l7.65.02v-4.8s-8.62.05-8.62.05c1.14.87,2.18,1.22,3.37,1.78l.02,1.62-2.49-.05c-.2.43-.2,1.24.06,1.38ZM225.11,215.73h-42.42s0,.81,0,.81h42.42s0-.81,0-.81ZM219.11,222.46l1.1-4.03,2-.07c.37-.01.42-1.21-.06-1.4h-36.54c-.33.18-.36,1.4,0,1.4l2.02.05,1.09,4.05h30.41ZM61.76,222.5l.09-3.73h-8.7s0,3.74,0,3.74h8.62ZM62.16,218.76v3.79s5.28,0,5.28,0v-3.79s-5.28,0-5.28,0ZM98.26,218.76h-5.15s0,3.81,0,3.81h5.15s0-3.81,0-3.81ZM98.48,218.76v3.8s12.7,0,12.7,0v-3.8s-12.7,0-12.7,0ZM123.51,218.76h-12.06s0,3.81,0,3.81h12.06s0-3.81,0-3.81ZM129.09,222.53l-.02-3.76h-5.29s0,3.75,0,3.75h5.31ZM159.86,218.76h-5.15s0,3.81,0,3.81h5.15s0-3.81,0-3.81ZM160.1,218.76v3.79s10.9,0,10.9,0v-3.79s-10.9,0-10.9,0ZM188.23,222.44l-.99-3.67h-15.98s0,3.76,0,3.76l16.98-.09ZM230.71,222.53l-.02-3.77-10.13.02-1.01,3.66,11.16.09ZM91.49,219.85v26.19c.45.07.81.07,1.26,0v-26.87s-2.75.05-2.75.05h-19.47s-2.66-.02-2.66-.02v26.65c0,.42,1.25.42,1.25,0v-26.08s1.4-.14,1.4-.14h19.67c.38,0,1.03.16,1.29.22ZM153.13,219.8v26.05c0,.42,1.23.44,1.23.01v-26.67s-2.61.03-2.61.03h-19.65s-2.64-.02-2.64-.02v26.66c0,.42,1.26.41,1.26,0v-26.04s1.38-.18,1.38-.18h19.67s1.37.17,1.37.17ZM69.57,220.22v25.92h10.83v-25.92h-10.83ZM91.11,220.22h-10.34v25.93h10.34v-25.93ZM131.14,220.22v25.92h10.85v-25.92h-10.85ZM152.7,220.22h-10.28v25.92h10.28v-25.92ZM67.43,222.84h-14.3s0,4.77,0,4.77h14.3s0-4.77,0-4.77ZM93.12,222.82v4.78s10.79.01,10.79.01v-4.78s-10.79-.01-10.79-.01ZM116.83,222.83h-12.71v4.78h12.71v-4.78ZM129.09,222.81l-12.04.02v4.79s12.05-.02,12.05-.02v-4.79ZM154.71,222.81v4.79s10.78,0,10.78,0v-4.79s-10.78,0-10.78,0ZM176.61,222.83h-10.86s0,4.77,0,4.77h10.86s0-4.77,0-4.77ZM183.03,225.75c-.16-.18-.82-.43-.83-.66l-.08-2.23h-5.25s.01,4.74.01,4.74h6.52c.15-.15.41-.94.23-1.15l-.6-.7ZM224.47,227.61l6.22-.02.02-4.74h-5.18c.15,2.82-.26,2.05-.88,2.89l-.63.86c-.13.18.19,1,.45,1ZM190.73,224.8c.25-.77.22-1.4-.04-1.88h-7.85c-.35.52-.35,1.27.02,1.89h7.87ZM217.81,266.18v-39.86s-1.42-1.26-1.42-1.26l-.11-2.15h-25.05c.32,1.57,0,2.78-1.36,3.35v40.04c.35.09.72.12.75.26l.14.77h26.22s.19-.74.19-.74c.03-.13.29-.21.64-.42ZM224.95,224.8c.25-.78.22-1.41-.04-1.89h-7.85c-.39.51-.39,1.28.02,1.88h7.87ZM190.02,225.27h-6.57c2.21.45,4.42.46,6.57,0ZM224.25,225.27h-6.57c2.21.45,4.42.46,6.57,0ZM189.42,225.86h-5.4v40.75h5.4v-40.75ZM223.62,225.87h-5.42v40.74h5.42v-40.74ZM61.85,232.35c-.17-1.57-.16-2.8-.04-4.47h-8.67s0,4.47,0,4.47h8.71ZM67.43,227.87h-5.28v4.48h5.28v-4.48ZM98.26,232.34l-.03-4.48-5.1.03-.02,4.46h5.15ZM98.48,227.87v4.48h12.7v-4.48h-12.7ZM123.51,227.87h-12.06v4.48h12.06v-4.48ZM129.09,232.34l-.02-4.47h-5.29s-.01,4.48-.01,4.48h5.32ZM159.85,232.34l-.03-4.48-5.09.03-.02,4.46,5.13-.02ZM160.09,227.87v4.48h10.9v-4.48h-10.9ZM183.63,227.87h-12.39v4.48h12.39v-4.48ZM230.71,227.87h-6.64v4.48h6.64v-4.48ZM53.13,232.66v4.47h14.3v-4.47h-14.3ZM103.9,232.66h-10.79v4.48h10.79v-4.48ZM104.13,232.66v4.47h12.67v-4.47h-12.67ZM117.06,232.65v4.49s12.03,0,12.03,0v-4.49s-12.03,0-12.03,0ZM165.49,232.66h-10.78v4.49h10.78v-4.49ZM176.61,232.66h-10.86v4.48h10.86v-4.48ZM183.63,237.09l-.02-4.44h-6.73s-.01,4.43-.01,4.43h6.77ZM230.72,237.08l-.03-4.42h-6.61s0,4.44,0,4.44l6.64-.02ZM61.84,241.81c-.17-1.65-.18-2.97,0-4.4h-8.7s0,4.42,0,4.42l8.7-.02ZM67.44,241.8l-.02-4.39h-5.27s0,4.44,0,4.44l5.28-.05ZM98.28,237.37h-5.17s0,4.51,0,4.51h5.17s0-4.51,0-4.51ZM98.48,237.38v4.49s12.71.01,12.71.01v-4.49s-12.71-.01-12.71-.01ZM123.52,237.37h-12.08v4.5h12.08v-4.5ZM129.09,241.85v-4.46s-5.34.02-5.34.02v4.44s5.34,0,5.34,0ZM154.72,237.37v4.52s5.16.01,5.16.01v-4.52s-5.16-.01-5.16-.01ZM171,237.38h-10.92s0,4.49,0,4.49h10.92s0-4.49,0-4.49ZM171.22,237.37v4.52h12.41v-4.52h-12.41ZM230.71,237.38h-6.64v4.49h6.64v-4.49ZM67.43,242.16h-14.3v4.34h14.3v-4.34ZM93.12,242.14v4.37s10.79,0,10.79,0v-4.37s-10.79,0-10.79,0ZM116.82,242.15h-12.71v4.35h12.71v-4.35ZM129.08,242.14l-12.03.02v4.38s12.04-.02,12.04-.02v-4.38ZM165.49,242.14h-10.78v4.38h10.78v-4.38ZM176.61,242.15h-10.86v4.37h10.86v-4.37ZM183.63,246.46v-4.29s-6.76.03-6.76.03v4.26s6.76,0,6.76,0ZM230.71,246.45v-4.27s-6.64.01-6.64.01v4.27s6.64-.01,6.64-.01ZM61.86,251.67c-.18-1.73-.2-3.25-.02-4.88h-8.69s0,4.87,0,4.87h8.71ZM74.85,246.75h-12.7s0,4.93,0,4.93h12.7s0-4.93,0-4.93ZM75.05,246.75v4.92h12.14v-4.92h-12.14ZM87.39,246.75v4.92h10.9v-4.92h-10.9ZM98.48,246.76v4.91s12.71,0,12.71,0v-4.91s-12.71,0-12.71,0ZM111.45,246.75v4.92s12.08,0,12.08,0v-4.92s-12.08,0-12.08,0ZM136.45,246.75h-12.7v4.92h12.7v-4.92ZM136.69,246.75v4.92h12.16v-4.92h-12.16ZM149.04,246.75v4.92h10.84v-4.92h-10.84ZM171,246.76h-10.92s0,4.92,0,4.92h10.92s0-4.92,0-4.92ZM183.63,246.75h-12.4s0,4.93,0,4.93h12.4s0-4.93,0-4.93ZM230.71,246.76h-6.64v4.91h6.64v-4.91ZM67.54,251.98h-14.41s0,4.46,0,4.46h14.41s0-4.46,0-4.46ZM67.8,251.98v4.48s12.67,0,12.67,0v-4.48s-12.67,0-12.67,0ZM92.81,251.97l-12.12.02v4.47s12.12-.02,12.12-.02v-4.47ZM103.9,251.98h-10.86s0,4.48,0,4.48h10.86s0-4.48,0-4.48ZM104.14,251.98v4.46h12.67v-4.46h-12.67ZM117.06,251.99v4.47s12.09,0,12.09,0v-4.47s-12.09,0-12.09,0ZM129.42,251.98v4.45h12.67v-4.45h-12.67ZM142.32,251.97v4.47s12.09.02,12.09.02v-4.47s-12.09-.02-12.09-.02ZM165.49,251.99h-10.83s0,4.46,0,4.46h10.83s0-4.46,0-4.46ZM176.61,252h-10.86v4.46h10.86v-4.46ZM183.64,256.4l-.04-4.33-6.72-.02v4.34s6.76,0,6.76,0ZM230.71,256.39l-.02-4.33h-6.62s0,4.35,0,4.35h6.64ZM61.84,261.14c-.17-1.65-.18-2.97,0-4.4h-8.7s0,4.42,0,4.42l8.7-.02ZM62.15,256.71v4.48h12.7v-4.48h-12.7ZM87.19,256.7h-12.14s0,4.5,0,4.5h12.14s0-4.5,0-4.5ZM98.28,256.7h-10.89v4.5h10.89v-4.5ZM111.18,256.71h-12.71v4.48h12.71v-4.48ZM123.52,256.7h-12.07v4.5h12.07v-4.5ZM136.45,256.7h-12.7s0,4.5,0,4.5h12.7s0-4.5,0-4.5ZM136.69,256.7v4.48s12.15,0,12.15,0v-4.48s-12.15,0-12.15,0ZM149.05,256.7v4.5h10.83v-4.5h-10.83ZM160.09,256.7v4.49s10.91,0,10.91,0v-4.49s-10.91,0-10.91,0ZM183.63,256.69h-12.4v4.51h12.4v-4.51ZM230.71,256.71h-6.64v4.48h6.64v-4.48ZM67.55,261.47h-14.41v8.08h14.41v-8.08ZM80.48,261.46h-12.69v8.09h12.69v-8.09ZM92.82,261.46h-12.12v8.09h12.12v-8.09ZM93.04,261.46v8.09s10.87,0,10.87,0v-8.09s-10.87,0-10.87,0ZM104.13,261.47v8.08h12.69v-8.08h-12.69ZM117.05,261.46v8.09h12.09v-8.09h-12.09ZM142.09,261.48h-12.67s0,8.07,0,8.07h12.67s0-8.07,0-8.07ZM154.41,261.46h-12.1v8.09h12.1v-8.09ZM165.49,261.46h-10.83v8.08h10.83v-8.08ZM176.61,261.46h-10.86v8.09h10.86v-8.09ZM183.66,265.82l-.05-4.35-6.74.02v8.04s5.23.01,5.23.01l.06-2.09.61-.32c-.28.15.41-.65.89-1.32ZM225.57,269.56l5.14-.04v-8.04s-6.62.01-6.62.01l-.04,4.52,1.42,1.48.1,2.07ZM190.01,267.08h-6.41v.19h6.41v-.19ZM224.24,267.08h-6.41v.19h6.41v-.19ZM190.89,267.68h-8.28s0,1.87,0,1.87h8.28s0-1.87,0-1.87ZM191.28,267.73v1.81h25.07v-1.81h-25.07ZM225.11,267.68h-8.31v1.87h8.31v-1.87Z"/>
    <g>
      <path class="cls-1" d="M201.96,151.49v39.71s-7.87,0-7.87,0v-39.71s7.87,0,7.87,0ZM201.6,152.11h-7.12v38.59h7.12v-38.59Z"/>
      <path class="cls-1" d="M213.62,151.59v39.61s-7.89,0-7.89,0v-39.61s7.89,0,7.89,0ZM213.23,152.09h-7.11v38.61h7.11v-38.61Z"/>
    </g>
    <g>
      <path class="cls-1" d="M78.81,151.49v39.71s-8.01,0-8.01,0v-39.71s8.01,0,8.01,0ZM78.31,152.11h-7.1v38.59h7.1v-38.59Z"/>
      <path class="cls-1" d="M82.47,151.59h7.89s0,39.61,0,39.61h-7.89s0-39.61,0-39.61ZM82.96,152.09v38.61h7.01v-38.61h-7.01Z"/>
    </g>
    <g>
      <path class="cls-1" d="M140.38,151.49v39.71s-7.89,0-7.89,0v-39.71s7.89,0,7.89,0ZM139.98,152.11h-7.1v38.59h7.1v-38.59Z"/>
      <path class="cls-1" d="M152.05,151.59v39.61s-8.01,0-8.01,0v-39.61s8.01,0,8.01,0ZM151.63,152.09h-7.1v38.61h7.1v-38.61Z"/>
    </g>
    <g>
      <path class="cls-1" d="M170.23,71.41h5.72s-.03,42.2-.03,42.2h-5.72s.03-42.2.03-42.2ZM175.65,71.78h-5.12v41.47h5.12v-41.47Z"/>
      <path class="cls-1" d="M108.47,71.4h5.83s-.02,42.2-.02,42.2h-5.83s.02-42.2.02-42.2ZM113.97,71.78h-5.13v41.48h5.13v-41.48Z"/>
      <g>
        <path class="cls-1" d="M121.67,71.41h41.11s-.01,42.2-.01,42.2h-41.11s.01-42.2.01-42.2ZM162.42,71.78h-40.43v41.47h40.43v-41.47Z"/>
        <path class="cls-1" d="M156.98,109.06h-30.12s0-32.23,0-32.23l-1.67-.17c-.13-.96-1.26-1.23-.89-1.74.1-.14.41-.19.72-.19h34.38c.09.16.15.72.05.96-.07.15-.64.12-.66.29l-.11.69-1.69.16v32.23ZM125.58,75.9v.19h32.6v-.19h-32.6ZM154.72,81.23v27.07c.47.49,1.3.47,1.81-.03v-31.56s-29.21,0-29.21,0v31.57c.47.42,1.1.44,1.76.17v-27.22s25.64,0,25.64,0ZM153.13,107.83c.03.32.23.77.44.8s.6-.15.8-.37v-26.49c-.94-.23-1.74.04-2.61.04h-19.65c-.88,0-1.67-.28-2.64-.03v26.48c.14.28.84.49,1.01.29.14-.16.23-.59.25-.91v-25.41s22.42,0,22.42,0v25.6ZM142,82.67h-10.85v25.93h10.85v-25.93ZM152.7,82.67h-10.28v25.93h10.28v-25.93Z"/>
        <path class="cls-1" d="M140.44,83.44l.05,24.61-8.08.02-.05-24.61,8.08-.02ZM139.87,83.82h-7.09v23.77h7.09v-23.77Z"/>
        <path class="cls-1" d="M151.91,83.45v24.6h-7.87v-24.6h7.87ZM151.53,83.82h-7.13v23.72h7.13v-23.72Z"/>
      </g>
      <g>
        <path class="cls-1" d="M224.43,71.4v42.2s-41.01,0-41.01,0v-42.2s41.01,0,41.01,0ZM224.11,71.78h-40.38v41.48h40.38v-41.48Z"/>
        <path class="cls-1" d="M218.58,109.06h-30.13s.02-32.07.02-32.07c-.49-.36-1.19-.35-1.7-.28-.04-.48-.23-.83-.71-1.1l.07-.89h34.93c.07.27.14.77-.01.96-.1.13-.59.13-.62.3l-.14.68-1.7.16v32.24ZM187.14,75.9v.19h32.6v-.19h-32.6ZM216.43,81.25l-.02,27.04c.47.41,1.12.44,1.77.16v-31.74s-29.24,0-29.24,0v31.58c.45.5,1.29.49,1.75,0v-27.06s25.73.02,25.73.02ZM214.75,108.36c.38.25.75.26,1.22.12v-26.69c-.91-.25-1.64.03-2.46.03h-19.85c-.88,0-1.67-.28-2.62-.04v26.5c.33.5,1.04.49,1.37,0v-26.04s22.34,0,22.34,0v26.13ZM203.57,82.67h-10.8v25.93h10.8v-25.93ZM214.39,82.67h-10.37s0,25.93,0,25.93h10.37s0-25.93,0-25.93Z"/>
        <path class="cls-1" d="M201.96,83.44v24.61s-7.97,0-7.97,0v-24.61s7.97,0,7.97,0ZM201.46,83.82h-7.03v23.77h7.03v-23.77Z"/>
        <path class="cls-1" d="M213.62,83.45v24.61s-8.02,0-8.02,0v-24.61s8.02,0,8.02,0ZM206.09,83.82v23.72h7.01v-23.72h-7.01Z"/>
      </g>
      <g>
        <path class="cls-1" d="M101.1,71.4v42.2h-41.11v-42.2h41.11ZM60.32,71.78v41.49h40.49v-41.49h-40.49Z"/>
        <path class="cls-1" d="M95.4,109.06h-30.13s0-32.25,0-32.25l-1.81-.16c-.07-.32-.27-.69-.59-1.01l-.07-.91h35.04s.02.95.02.95c0,.17-.65.15-.68.31l-.1.67-1.7.18v32.23ZM96.51,75.9h-32.41v.19h32.41v-.19ZM93.12,81.23v27.06c.49.49,1.33.49,1.82-.01v-31.57s-29.28,0-29.28,0v31.74c.66.27,1.3.24,1.78-.17l-.02-27.04h25.7ZM91.48,108.47c.45.12.82.12,1.27,0v-26.71c-.89-.2-1.7.06-2.57.06h-19.85c-.82,0-1.55-.28-2.46-.02v26.47c.17.28.83.49,1.01.3.15-.15.23-.61.23-.92v-25.41s22.36,0,22.36,0v26.24ZM80.41,82.67h-10.83v25.93h10.83v-25.93ZM91.11,82.67h-10.34v25.93h10.34v-25.93Z"/>
        <path class="cls-1" d="M78.62,83.46v24.6h-7.81v-24.6h7.81ZM78.25,83.82h-7.09v23.77h7.09v-23.77Z"/>
        <path class="cls-1" d="M82.44,83.46h7.85v24.59h-7.85v-24.59ZM89.93,83.82h-7.12v23.72h7.12v-23.72Z"/>
      </g>
    </g>
  </g>
</svg>